<svg width="120" height="120" viewBox="0 0 120 120" fill="none" xmlns="http://www.w3.org/2000/svg">
<circle cx="60" cy="60" r="60" fill="#FFB186"/>
<circle cx="84.5" cy="48.5" r="4" stroke="#F7F9D6" stroke-width="3"/>
<circle cx="98.5" cy="70.5" r="4" stroke="#F7F9D6" stroke-width="3"/>
<path d="M79 73L106 45" stroke="#F7F9D6" stroke-width="3"/>
<path d="M14.9 74.7762V74.8338L14.9498 74.8627C17.524 76.356 20.664 77.1 24.3651 77.1C28.2017 77.1 31.4274 76.0468 34.0357 73.9355C36.6153 71.8534 37.9062 69.1174 37.9062 65.7362C37.9062 62.5175 36.7135 59.9107 34.3286 57.9251C31.9465 55.8772 28.9625 54.8558 25.3841 54.8558C23.4028 54.8558 21.647 55.0531 20.1177 55.4492L21.4437 45.9191H35.4285H35.5285V45.8191V42.5801V42.4801H35.4285H18.6393H18.5517L18.5402 42.567L16.3081 59.3902L16.2866 59.5518L16.4404 59.4976C19.0825 58.5667 21.7886 58.1014 24.5592 58.1014C27.454 58.1014 29.7584 58.8222 31.4828 60.2537L31.4843 60.255C33.2396 61.6539 34.1154 63.4782 34.1154 65.7362C34.1154 68.025 33.1922 69.8979 31.3391 71.3621C29.4839 72.828 27.1294 73.5644 24.2681 73.5644C20.7581 73.5644 17.6875 72.7465 15.0527 71.1139L14.9 71.0193V71.1989V74.7762ZM68.2459 46.9666L68.2458 46.9665C65.6396 43.5911 62.2626 41.9 58.1222 41.9C53.9494 41.9 50.5562 43.6073 47.95 47.015C45.3785 50.355 44.0958 54.519 44.0958 59.5C44.0958 64.5131 45.3785 68.6932 47.95 72.0334L47.9501 72.0335C50.5564 75.4091 53.9497 77.1 58.1222 77.1C62.2626 77.1 65.6396 75.4089 68.2458 72.0335L68.2459 72.0334C70.8174 68.6932 72.1 64.5131 72.1 59.5C72.1 54.4869 70.8174 50.3068 68.2459 46.9666ZM65.4651 69.5937L65.4649 69.5939C63.5733 72.245 61.1278 73.5644 58.1222 73.5644C55.1168 73.5644 52.655 72.2451 50.731 69.594C48.8367 66.8747 47.8866 63.512 47.8866 59.5C47.8866 55.4879 48.8529 52.1416 50.7793 49.4547C52.7038 46.7704 55.1497 45.4356 58.1222 45.4356C61.0946 45.4356 63.5405 46.7704 65.4651 49.4547C67.3915 52.1416 68.3578 55.4879 68.3578 59.5C68.3578 63.5445 67.3914 66.9069 65.4651 69.5937Z" fill="#F7F9D6" stroke="#F7F9D6" stroke-width="0.2"/>
</svg>
