<svg width="120" height="120" viewBox="0 0 120 120" fill="none" xmlns="http://www.w3.org/2000/svg">
<circle cx="60" cy="60" r="60" fill="#FFB186"/>
<path d="M60.4291 70.1741H31C29.3431 70.1741 28 68.831 28 67.1741V40.6932C28 39.0363 29.3431 37.6932 31 37.6932H70.4007C72.0576 37.6932 73.4007 39.0363 73.4007 40.6932V57.1818" stroke="#F7F9D6" stroke-width="3"/>
<path d="M90.0604 72.1231C90.0604 80.2663 83.4702 86.8635 75.3459 86.8635C67.2215 86.8635 60.6313 80.2663 60.6313 72.1231C60.6313 63.9798 67.2215 57.3826 75.3459 57.3826C83.4702 57.3826 90.0604 63.9798 90.0604 72.1231Z" fill="#FFB186" stroke="#F7F9D6" stroke-width="3"/>
<path d="M72.7688 81.301V64.9772H76.8367C79.0906 64.9772 80.9177 66.8043 80.9177 69.0582V69.0582C80.9177 71.312 79.0906 73.1391 76.8367 73.1391H69.5093" stroke="#F7F9D6" stroke-width="3"/>
<path d="M69.5098 78.0362H77.6586" stroke="#F7F9D6" stroke-width="3"/>
<path d="M43.5654 37.8901V21" stroke="#F7F9D6" stroke-width="3"/>
<path d="M38.3779 26.1963L43.5666 21L48.7552 26.1963" stroke="#F7F9D6" stroke-width="3"/>
<path d="M84 83L84 99" stroke="#F7F9D6" stroke-width="3"/>
<path d="M89.1001 93.4054L83.9114 98.6017L78.7228 93.4054" stroke="#F7F9D6" stroke-width="3"/>
<path d="M29.2979 48.0871H72.1042" stroke="#F7F9D6" stroke-width="3"/>
<path d="M34.4858 61.0795H44.8631" stroke="#F7F9D6" stroke-width="3"/>
</svg>
