<svg width="98" height="98" viewBox="0 0 98 98" fill="none" xmlns="http://www.w3.org/2000/svg">
<circle cx="49" cy="49" r="49" fill="#0086FF"/>
<path d="M37.5 57V79M37.5 79L31 73.6486M37.5 79L44 73.6486" stroke="#F7F9D6" stroke-width="4"/>
<path d="M61.5 57V79M61.5 79L55 73.6486M61.5 79L68 73.6486" stroke="#F7F9D6" stroke-width="4"/>
<path d="M29.9829 17H73.9999V47.9302" stroke="#F7F9D6" stroke-width="4"/>
<mask id="path-5-inside-1" fill="white">
<path d="M25 21.0696H69.8475V51.9998H25V21.0696Z"/>
</mask>
<path d="M25 21.0696V17.0696H21V21.0696H25ZM69.8475 21.0696H73.8475V17.0696H69.8475V21.0696ZM69.8475 51.9998V55.9998H73.8475V51.9998H69.8475ZM25 51.9998H21V55.9998H25V51.9998ZM25 25.0696H69.8475V17.0696H25V25.0696ZM65.8475 21.0696V51.9998H73.8475V21.0696H65.8475ZM69.8475 47.9998H25V55.9998H69.8475V47.9998ZM29 51.9998V21.0696H21V51.9998H29Z" fill="#F7F9D6" mask="url(#path-5-inside-1)"/>
<path d="M69.017 32.4652H53.2373V40.6047H69.017" stroke="#F7F9D6" stroke-width="4"/>
</svg>
