<svg width="98" height="98" viewBox="0 0 98 98" fill="none" xmlns="http://www.w3.org/2000/svg">
<circle cx="49" cy="49" r="49" fill="#0086FF"/>
<path d="M27 21V78H71V31.9615L60 21H27Z" stroke="#F7F9D6" stroke-width="4"/>
<path d="M36.6802 36.7846H61.3202" stroke="#F7F9D6" stroke-width="4"/>
<path d="M36.6802 46.4308H61.3202" stroke="#F7F9D6" stroke-width="4"/>
<path d="M36.6802 68.8693C38.6592 68.8414 40.6296 68.1287 42.3177 67.0502C43.7652 66.1254 48.3758 62.5015 45.856 60.4481C44.7887 59.5784 42.7195 59.0274 41.8548 60.4918C41.5978 60.9269 41.6002 61.4412 41.676 61.9325C41.8894 63.316 42.4381 64.636 42.9227 65.9297C43.3515 67.0745 43.6401 68.3894 44.2243 69.4611C44.3643 69.7179 44.5668 69.7938 44.8385 69.8298C45.8073 69.958 46.8279 69.4726 47.7306 69.1652C48.3107 68.9677 49.5391 68.2821 50.1277 68.7917C50.6471 69.2415 51.0774 70.228 51.6998 70.475C52.9032 70.9526 54.333 69.6611 55.3893 69.2768C56.0761 69.0269 56.6128 70.1448 57.0164 70.572C57.1366 70.6992 57.3133 70.7929 57.4702 70.8582C57.9369 71.0525 58.5791 70.9649 59.056 70.9649C60.399 70.9649 61.7381 70.9155 63.0802 70.8776" stroke="#F7F9D6" stroke-width="4" stroke-linecap="round" stroke-linejoin="round"/>
</svg>
