<svg width="59" height="49" viewBox="0 0 59 49" fill="none" xmlns="http://www.w3.org/2000/svg">
<circle cx="40" cy="25" r="19" fill="#1563DD"/>
<mask id="path-2-inside-1" fill="white">
<path fill-rule="evenodd" clip-rule="evenodd" d="M33 3C34.6569 3 36 1.65685 36 0H42V49H0V0H6C6 1.65685 7.34315 3 9 3C10.6569 3 12 1.65685 12 0H18C18 1.65685 19.3431 3 21 3C22.6569 3 24 1.65685 24 0H30C30 1.65685 31.3431 3 33 3Z"/>
</mask>
<path d="M36 0V-2H34V0H36ZM42 0H44V-2H42V0ZM42 49V51H44V49H42ZM0 49H-2V51H0V49ZM0 0V-2H-2V0H0ZM6 0H8V-2H6V0ZM12 0V-2H10V0H12ZM18 0H20V-2H18V0ZM24 0V-2H22V0H24ZM30 0H32V-2H30V0ZM34 0C34 0.552284 33.5523 1 33 1V5C35.7614 5 38 2.76142 38 0H34ZM36 2H42V-2H36V2ZM40 0V49H44V0H40ZM42 47H0V51H42V47ZM2 49V0H-2V49H2ZM0 2H6V-2H0V2ZM4 0C4 2.76142 6.23858 5 9 5V1C8.44772 1 8 0.552285 8 0H4ZM9 5C11.7614 5 14 2.76142 14 0H10C10 0.552285 9.55229 1 9 1V5ZM12 2H18V-2H12V2ZM16 0C16 2.76142 18.2386 5 21 5V1C20.4477 1 20 0.552285 20 0H16ZM21 5C23.7614 5 26 2.76142 26 0H22C22 0.552285 21.5523 1 21 1V5ZM24 2H30V-2H24V2ZM33 1C32.4477 1 32 0.552285 32 0H28C28 2.76142 30.2386 5 33 5V1Z" fill="black" mask="url(#path-2-inside-1)"/>
<path d="M6 17L32 17" stroke="black" stroke-width="2"/>
<path d="M6 25L32 25" stroke="black" stroke-width="2"/>
<path d="M6 33L32 33" stroke="black" stroke-width="2"/>
<path d="M34 17L36 17" stroke="black" stroke-width="2"/>
<path d="M34 25L36 25" stroke="black" stroke-width="2"/>
<path d="M34 33L36 33" stroke="black" stroke-width="2"/>
</svg>
