<svg width="70" height="57" viewBox="0 0 70 57" fill="none" xmlns="http://www.w3.org/2000/svg">
<circle cx="51" cy="32" r="19" fill="#1563DD"/>
<path d="M10.8608 22.759L11.1538 23.0525H11.5685H27.6152H29.1715L28.5247 21.6369L19.0957 1H22.1309L41.6112 22.7201L41.9093 23.0525H42.3557H57.9359C60.7312 23.0525 63 25.3226 63 28.1262C63 30.9299 60.7312 33.2 57.9359 33.2H42.3557H41.8993L41.6003 33.5447L22.1209 56H18.7353L28.5216 34.9961L29.1843 33.5738H27.6152H11.5685H11.1538L10.8608 33.8672L5.74276 38.9934H1.79003L7.75533 29.3046L8.06559 28.8007L7.77319 28.2862L1.71854 17.6328H5.74276L10.8608 22.759Z" stroke="black" stroke-width="2"/>
</svg>
