<svg width="967" height="95" viewBox="0 0 967 95" fill="none" xmlns="http://www.w3.org/2000/svg">
<path d="M29.6796 7.8V75H14.1276V20.28H0.687625V7.8H29.6796ZM102.889 60.888H91.9454V75H76.7774V60.888H40.5854V50.424L72.2654 7.8H88.5854L59.2094 48.216H77.2574V35.64H91.9454V48.216H102.889V60.888ZM138.277 35.16C144.165 36.12 148.677 38.328 151.813 41.784C154.949 45.176 156.517 49.4 156.517 54.456C156.517 58.36 155.493 61.976 153.445 65.304C151.397 68.568 148.261 71.192 144.037 73.176C139.877 75.16 134.757 76.152 128.677 76.152C123.941 76.152 119.269 75.544 114.661 74.328C110.117 73.048 106.245 71.256 103.045 68.952L109.093 57.048C111.653 58.968 114.597 60.472 117.925 61.56C121.317 62.584 124.773 63.096 128.293 63.096C132.197 63.096 135.269 62.36 137.509 60.888C139.749 59.352 140.869 57.208 140.869 54.456C140.869 48.952 136.677 46.2 128.293 46.2H121.189V35.928L135.013 20.28H106.405V7.8H153.445V17.88L138.277 35.16ZM243.493 7.8V17.88L218.533 75H201.637L225.733 20.472H203.461V31.416H189.637V7.8H243.493ZM271.862 33.048C281.334 33.048 288.31 34.936 292.79 38.712C297.334 42.488 299.606 47.544 299.606 53.88C299.606 57.976 298.582 61.72 296.534 65.112C294.486 68.44 291.35 71.128 287.126 73.176C282.966 75.16 277.814 76.152 271.67 76.152C266.934 76.152 262.262 75.544 257.654 74.328C253.11 73.048 249.238 71.256 246.038 68.952L252.182 57.048C254.742 58.968 257.686 60.472 261.014 61.56C264.342 62.584 267.766 63.096 271.286 63.096C275.19 63.096 278.262 62.328 280.502 60.792C282.742 59.256 283.862 57.112 283.862 54.36C283.862 51.48 282.678 49.304 280.31 47.832C278.006 46.36 273.974 45.624 268.214 45.624H251.03L254.486 7.8H295.478V20.28H267.446L266.39 33.048H271.862ZM338.268 32.856C342.556 32.856 346.46 33.72 349.98 35.448C353.5 37.176 356.284 39.64 358.332 42.84C360.38 45.976 361.404 49.624 361.404 53.784C361.404 58.264 360.284 62.2 358.044 65.592C355.804 68.984 352.732 71.608 348.828 73.464C344.988 75.256 340.7 76.152 335.964 76.152C326.556 76.152 319.196 73.272 313.884 67.512C308.572 61.752 305.916 53.528 305.916 42.84C305.916 35.224 307.356 28.696 310.236 23.256C313.116 17.816 317.116 13.688 322.236 10.872C327.42 8.056 333.404 6.648 340.188 6.648C343.772 6.648 347.196 7.064 350.46 7.89599C353.788 8.664 356.604 9.784 358.908 11.256L353.148 22.68C349.82 20.44 345.628 19.32 340.572 19.32C334.876 19.32 330.364 20.984 327.036 24.312C323.708 27.64 321.916 32.472 321.66 38.808C325.628 34.84 331.164 32.856 338.268 32.856ZM335.1 64.536C338.428 64.536 341.116 63.64 343.164 61.848C345.276 60.056 346.332 57.624 346.332 54.552C346.332 51.48 345.276 49.048 343.164 47.256C341.116 45.4 338.364 44.472 334.908 44.472C331.516 44.472 328.732 45.432 326.556 47.352C324.38 49.208 323.292 51.608 323.292 54.552C323.292 57.496 324.348 59.896 326.46 61.752C328.572 63.608 331.452 64.536 335.1 64.536ZM444.436 62.328V75H393.652V64.92L419.572 40.44C422.324 37.816 424.18 35.576 425.14 33.72C426.1 31.8 426.58 29.912 426.58 28.056C426.58 25.368 425.652 23.32 423.796 21.912C422.004 20.44 419.348 19.704 415.828 19.704C412.884 19.704 410.228 20.28 407.86 21.432C405.492 22.52 403.508 24.184 401.908 26.424L390.58 19.128C393.204 15.224 396.82 12.184 401.428 10.008C406.036 7.768 411.316 6.648 417.268 6.648C422.26 6.648 426.612 7.48 430.324 9.144C434.1 10.744 437.012 13.048 439.06 16.056C441.172 19 442.228 22.488 442.228 26.52C442.228 30.168 441.46 33.592 439.924 36.792C438.388 39.992 435.412 43.64 430.996 47.736L415.54 62.328H444.436ZM473.893 33.048C483.365 33.048 490.341 34.936 494.821 38.712C499.365 42.488 501.637 47.544 501.637 53.88C501.637 57.976 500.613 61.72 498.565 65.112C496.517 68.44 493.381 71.128 489.157 73.176C484.997 75.16 479.845 76.152 473.701 76.152C468.965 76.152 464.293 75.544 459.685 74.328C455.141 73.048 451.269 71.256 448.069 68.952L454.213 57.048C456.773 58.968 459.717 60.472 463.045 61.56C466.373 62.584 469.797 63.096 473.317 63.096C477.221 63.096 480.293 62.328 482.533 60.792C484.773 59.256 485.893 57.112 485.893 54.36C485.893 51.48 484.709 49.304 482.341 47.832C480.037 46.36 476.005 45.624 470.245 45.624H453.061L456.517 7.8H497.509V20.28H469.477L468.421 33.048H473.893ZM540.299 32.856C544.587 32.856 548.491 33.72 552.011 35.448C555.531 37.176 558.315 39.64 560.363 42.84C562.411 45.976 563.435 49.624 563.435 53.784C563.435 58.264 562.315 62.2 560.075 65.592C557.835 68.984 554.763 71.608 550.859 73.464C547.019 75.256 542.731 76.152 537.995 76.152C528.587 76.152 521.227 73.272 515.915 67.512C510.603 61.752 507.947 53.528 507.947 42.84C507.947 35.224 509.387 28.696 512.267 23.256C515.147 17.816 519.147 13.688 524.267 10.872C529.451 8.056 535.435 6.648 542.219 6.648C545.803 6.648 549.227 7.064 552.491 7.89599C555.819 8.664 558.635 9.784 560.939 11.256L555.179 22.68C551.851 20.44 547.659 19.32 542.603 19.32C536.907 19.32 532.395 20.984 529.067 24.312C525.739 27.64 523.947 32.472 523.691 38.808C527.659 34.84 533.195 32.856 540.299 32.856ZM537.131 64.536C540.459 64.536 543.147 63.64 545.195 61.848C547.307 60.056 548.363 57.624 548.363 54.552C548.363 51.48 547.307 49.048 545.195 47.256C543.147 45.4 540.395 44.472 536.939 44.472C533.547 44.472 530.763 45.432 528.587 47.352C526.411 49.208 525.323 51.608 525.323 54.552C525.323 57.496 526.379 59.896 528.491 61.752C530.603 63.608 533.483 64.536 537.131 64.536ZM630.148 22.584C634.948 22.584 639.3 23.704 643.204 25.944C647.172 28.12 650.276 31.224 652.516 35.256C654.756 39.224 655.876 43.864 655.876 49.176C655.876 54.488 654.756 59.16 652.516 63.192C650.276 67.16 647.172 70.264 643.204 72.504C639.3 74.68 634.948 75.768 630.148 75.768C623.556 75.768 618.372 73.688 614.596 69.528V93.624H599.62V23.352H613.924V29.304C617.636 24.824 623.044 22.584 630.148 22.584ZM627.556 63.48C631.396 63.48 634.532 62.2 636.964 59.64C639.46 57.016 640.708 53.528 640.708 49.176C640.708 44.824 639.46 41.368 636.964 38.808C634.532 36.184 631.396 34.872 627.556 34.872C623.716 34.872 620.548 36.184 618.052 38.808C615.62 41.368 614.404 44.824 614.404 49.176C614.404 53.528 615.62 57.016 618.052 59.64C620.548 62.2 623.716 63.48 627.556 63.48ZM716.71 23.352L693.382 78.168C691.014 84.12 688.07 88.312 684.55 90.744C681.094 93.176 676.902 94.392 671.974 94.392C669.286 94.392 666.63 93.976 664.006 93.144C661.382 92.312 659.238 91.16 657.574 89.688L663.046 79.032C664.198 80.056 665.51 80.856 666.982 81.432C668.518 82.008 670.022 82.296 671.494 82.296C673.542 82.296 675.206 81.784 676.486 80.76C677.766 79.8 678.918 78.168 679.942 75.864L680.134 75.384L657.766 23.352H673.222L687.718 58.392L702.31 23.352H716.71ZM753.415 26.904C758.343 26.904 762.663 27.928 766.375 29.976C770.087 31.96 772.935 34.776 774.919 38.424C776.967 42.072 777.991 46.296 777.991 51.096C777.991 56.024 776.775 60.408 774.343 64.248C771.975 68.024 768.647 70.968 764.359 73.08C760.071 75.128 755.207 76.152 749.767 76.152C740.743 76.152 733.639 73.272 728.455 67.512C723.335 61.688 720.775 53.176 720.775 41.976C720.775 31.608 723.015 23.352 727.495 17.208C732.039 11 738.983 6.936 748.327 5.016L772.903 0.119997L774.919 12.984L753.223 17.304C747.335 18.456 742.951 20.376 740.071 23.064C737.255 25.752 735.591 29.56 735.079 34.488C737.319 32.056 740.007 30.2 743.143 28.92C746.279 27.576 749.703 26.904 753.415 26.904ZM749.863 64.536C753.703 64.536 756.775 63.288 759.079 60.792C761.447 58.296 762.631 55.128 762.631 51.288C762.631 47.384 761.447 44.28 759.079 41.976C756.775 39.672 753.703 38.52 749.863 38.52C745.959 38.52 742.823 39.672 740.455 41.976C738.087 44.28 736.903 47.384 736.903 51.288C736.903 55.192 738.119 58.392 740.551 60.888C742.983 63.32 746.087 64.536 749.863 64.536ZM836.939 23.352V75H821.963V35.64H805.643L805.163 44.76C804.907 51.544 804.267 57.176 803.243 61.656C802.219 66.136 800.555 69.656 798.251 72.216C795.947 74.776 792.747 76.056 788.651 76.056C786.475 76.056 783.883 75.672 780.875 74.904L781.643 62.616C782.667 62.744 783.403 62.808 783.851 62.808C786.091 62.808 787.755 62.008 788.843 60.408C789.995 58.744 790.763 56.664 791.147 54.168C791.531 51.608 791.819 48.248 792.011 44.088L792.779 23.352H836.939ZM901.549 49.368C901.549 49.56 901.453 50.904 901.261 53.4H862.189C862.893 56.6 864.557 59.128 867.181 60.984C869.805 62.84 873.069 63.768 876.973 63.768C879.661 63.768 882.029 63.384 884.077 62.616C886.189 61.784 888.141 60.504 889.933 58.776L897.901 67.416C893.037 72.984 885.933 75.768 876.589 75.768C870.765 75.768 865.613 74.648 861.133 72.408C856.653 70.104 853.197 66.936 850.765 62.904C848.333 58.872 847.117 54.296 847.117 49.176C847.117 44.12 848.301 39.576 850.669 35.544C853.101 31.448 856.397 28.28 860.557 26.04C864.781 23.736 869.485 22.584 874.669 22.584C879.725 22.584 884.301 23.672 888.397 25.848C892.493 28.024 895.693 31.16 897.997 35.256C900.365 39.288 901.549 43.992 901.549 49.368ZM874.765 33.912C871.373 33.912 868.525 34.872 866.221 36.792C863.917 38.712 862.509 41.336 861.997 44.664H887.437C886.925 41.4 885.517 38.808 883.213 36.888C880.909 34.904 878.093 33.912 874.765 33.912ZM913.028 23.352H927.908V54.072L953.06 23.352H966.788V75H951.908V44.28L926.852 75H913.028V23.352ZM938.948 17.784C927.684 17.784 922.02 12.824 921.956 2.904H931.748C931.812 5.144 932.42 6.904 933.572 8.184C934.788 9.4 936.548 10.008 938.852 10.008C941.156 10.008 942.916 9.4 944.132 8.184C945.412 6.904 946.052 5.144 946.052 2.904H956.036C955.972 12.824 950.276 17.784 938.948 17.784Z" fill="url(#paint0_linear)"/>
<defs>
<linearGradient id="paint0_linear" x1="897.272" y1="21.3049" x2="83.0809" y2="27.2003" gradientUnits="userSpaceOnUse">
<stop offset="0.131302" stop-color="#FFB186"/>
<stop offset="0.863265" stop-color="#FB5454"/>
</linearGradient>
</defs>
</svg>
